<?xml version="1.0" standalone="no"?>
<!DOCTYPE svg PUBLIC "-//W3C//DTD SVG 1.1//EN" "http://www.w3.org/Graphics/SVG/1.1/DTD/svg11.dtd">
<svg width="100%" height="100%" viewBox="0 0 48 48" version="1.1" xmlns="http://www.w3.org/2000/svg" xmlns:xlink="http://www.w3.org/1999/xlink" xml:space="preserve" style="fill-rule:evenodd;clip-rule:evenodd;stroke-linejoin:round;stroke-miterlimit:1.41421;">
    <g>
        <path d="M16.8,40L11.5,40L10.4,43L6.9,43L12.6,27.8L15.5,27.8L21.1,43L17.9,43L16.8,40ZM12.2,37.3L16,37.3L14.1,31.6L12.2,37.3Z" style="fill:rgb(41,106,176);fill-rule:nonzero;"/>
        <path d="M12.4,17.7L20,17.7L20,20.2L8.4,20.2L8.4,18.3L16,7.5L8.4,7.5L8.4,5L19.8,5L19.8,6.7L12.4,17.7Z" style="fill:rgb(41,106,176);fill-rule:nonzero;"/>
    </g>
    <path d="M38,33L38,5L34,5L34,33L28,33L36,43L44,33L38,33Z" style="fill:rgb(41,56,77);fill-rule:nonzero;"/>
</svg>
