<?xml version="1.0" standalone="no"?>
<!DOCTYPE svg PUBLIC "-//W3C//DTD SVG 1.1//EN" "http://www.w3.org/Graphics/SVG/1.1/DTD/svg11.dtd">
<svg width="100%" height="100%" viewBox="0 0 48 48" version="1.1" xmlns="http://www.w3.org/2000/svg" xmlns:xlink="http://www.w3.org/1999/xlink" xml:space="preserve" style="fill-rule:evenodd;clip-rule:evenodd;stroke-linejoin:round;stroke-miterlimit:1.41421;">
    <path d="M38,33L38,5L34,5L34,33L28,33L36,43L44,33L38,33Z" style="fill:rgb(34,47,64);fill-rule:nonzero;"/>
    <g>
        <path d="M16.8,17.2L11.5,17.2L10.4,20.2L6.9,20.2L12.6,5L15.5,5L21.2,20.2L18,20.2L16.8,17.2ZM12.2,14.5L16,14.5L14.1,8.8L12.2,14.5Z" style="fill:rgb(41,106,176);fill-rule:nonzero;"/>
        <path d="M12.4,40.5L20,40.5L20,43L8.4,43L8.4,41.1L16,30.3L8.4,30.3L8.4,27.8L19.8,27.8L19.8,29.5L12.4,40.5Z" style="fill:rgb(41,106,176);fill-rule:nonzero;"/>
    </g>
</svg>
