<?xml version="1.0" standalone="no"?>
<!DOCTYPE svg PUBLIC "-//W3C//DTD SVG 1.1//EN" "http://www.w3.org/Graphics/SVG/1.1/DTD/svg11.dtd">
<svg width="100%" height="100%" viewBox="0 0 48 48" version="1.1" xmlns="http://www.w3.org/2000/svg" xmlns:xlink="http://www.w3.org/1999/xlink" xml:space="preserve" style="fill-rule:evenodd;clip-rule:evenodd;stroke-linejoin:round;stroke-miterlimit:1.41421;">
    <circle cx="18" cy="18" r="15" style="fill:rgb(41,56,77);"/>
    <path d="M20.3,16L20.3,17.7L16.5,17.7L16.5,19.1L20.3,19.1L20.3,20.8L16.5,20.8C16.5,21.4 16.6,22 16.8,22.4C17,22.8 17.2,23.2 17.5,23.4C17.8,23.7 18.2,23.8 18.6,24C19,24.1 19.5,24.2 20,24.2C20.4,24.2 20.7,24.2 21.1,24.1C21.5,24 21.8,24 22.1,23.8L22.5,26.5C22.1,26.6 21.6,26.7 21.1,26.7C20.6,26.8 20.1,26.8 19.6,26.8C18.7,26.8 17.8,26.7 17,26.4C16.2,26.2 15.5,25.8 15,25.3C14.4,24.8 14,24.2 13.6,23.4C13.3,22.7 13.1,21.8 13.1,20.8L11.2,20.8L11.2,19.1L13.1,19.1L13.1,17.7L11.2,17.7L11.2,16L13.1,16C13.2,15 13.4,14.2 13.7,13.4C14.1,12.7 14.5,12 15.1,11.5C15.7,11 16.4,10.6 17.2,10.4C18,10.1 18.9,10 19.8,10C20.2,10 20.7,10 21.1,10.1C21.5,10.2 22,10.2 22.4,10.4L22,13.1C21.7,13 21.4,12.9 21,12.8C20.6,12.7 20.3,12.7 19.9,12.7C19.4,12.7 18.9,12.8 18.5,12.9C18.1,13 17.7,13.2 17.5,13.5C17.2,13.8 17,14.1 16.8,14.5C16.6,14.9 16.5,15.4 16.5,16L20.3,16Z" style="fill:white;fill-rule:nonzero;"/>
    <circle cx="30" cy="30" r="15" style="fill:rgb(46,144,111);"/>
    <path d="M28.4,27C28.5,27.2 28.6,27.4 28.8,27.6C29,27.8 29.2,28 29.5,28.1C29.8,28.3 30.2,28.4 30.6,28.6C31.3,28.9 32,29.2 32.6,29.5C33.2,29.8 33.7,30.2 34.1,30.6C34.5,31 34.9,31.5 35.1,32C35.3,32.5 35.5,33.2 35.5,33.9C35.5,34.6 35.4,35.2 35.2,35.7C35,36.2 34.7,36.7 34.3,37.1C33.9,37.5 33.4,37.8 32.9,38C32.3,38.2 31.7,38.4 31.1,38.5L31.1,40.7L29.3,40.7L29.3,38.5C28.7,38.4 28.1,38.3 27.5,38.1C26.9,37.9 26.4,37.6 26,37.1C25.5,36.7 25.2,36.1 24.9,35.5C24.6,34.9 24.5,34.1 24.5,33.2L27.8,33.2C27.8,33.7 27.9,34.2 28,34.5C28.1,34.9 28.3,35.1 28.6,35.4C28.8,35.6 29.1,35.8 29.4,35.9C29.7,36 30,36 30.3,36C30.7,36 31,36 31.2,35.9C31.5,35.8 31.7,35.7 31.9,35.5C32.1,35.3 32.2,35.1 32.3,34.9C32.4,34.7 32.4,34.4 32.4,34.1C32.4,33.8 32.4,33.5 32.3,33.3C32.2,33.1 32.1,32.8 31.9,32.6C31.7,32.4 31.5,32.2 31.2,32.1C30.9,31.9 30.5,31.8 30.1,31.6C29.4,31.3 28.7,31 28.1,30.7C27.5,30.4 27,30 26.6,29.6C26.2,29.2 25.8,28.7 25.6,28.2C25.4,27.7 25.2,27 25.2,26.3C25.2,25.7 25.3,25.1 25.5,24.6C25.7,24.1 26,23.6 26.4,23.2C26.8,22.8 27.3,22.5 27.8,22.2C28.3,22 29,21.8 29.6,21.7L29.6,19.3L31.4,19.3L31.4,21.7C32,21.8 32.6,22 33.2,22.3C33.7,22.6 34.2,22.9 34.5,23.4C34.9,23.8 35.2,24.4 35.4,25C35.6,25.6 35.7,26.3 35.7,27L32.4,27C32.4,26.1 32.2,25.4 31.8,25C31.4,24.6 30.9,24.3 30.3,24.3C30,24.3 29.7,24.4 29.4,24.5C29.2,24.6 29,24.7 28.8,24.9C28.6,25.1 28.5,25.3 28.5,25.5C28.4,25.7 28.4,26 28.4,26.3C28.3,26.5 28.4,26.8 28.4,27Z" style="fill:white;fill-rule:nonzero;"/>
</svg>
