<?xml version="1.0" standalone="no"?>
<!DOCTYPE svg PUBLIC "-//W3C//DTD SVG 1.1//EN" "http://www.w3.org/Graphics/SVG/1.1/DTD/svg11.dtd">
<svg width="100%" height="100%" viewBox="0 0 48 48" version="1.1" xmlns="http://www.w3.org/2000/svg" xmlns:xlink="http://www.w3.org/1999/xlink" xml:space="preserve" style="fill-rule:evenodd;clip-rule:evenodd;stroke-linejoin:round;stroke-miterlimit:1.41421;">
    <g>
        <path d="M32.0561,42.9561C30.8132,44.2218 29.0844,45 27.2,45L16,45C11.6,45 8,41.4 8,37L8,13.5C8,12.1 9.1,11 10.5,11C11.9,11 13,12.1 13,13.5L13,21C13,21.6 13.4,22 14,22C14.6,22 15,21.6 15,21L15,7.5C15,6.1 16.1,5 17.5,5C18.9,5 20,6.1 20,7.5L20,21C20,21.6 20.4,22 21,22C21.6,22 22,21.6 22,21L22,5.5C22,4.1 23.1,3 24.5,3C25.9,3 27,4.1 27,5.5L27,21C27,21.6 27.4,22 28,22C28.6,22 29,21.6 29,21L29,8.5C29,7.1 30.1,6 31.5,6C32.9,6 34,7.1 34,8.5L34,31.1L37.1,28C38.5,26.6 40.7,26.6 42,28C43.4,29.4 43.4,31.6 42,32.9L32.1,43L32.0561,42.9561Z" style="fill:rgb(176,182,187);"/>
    </g>
    <g>
        <path d="M21.9438,35.502L17.8627,39.5831L15.3882,37.1086L19.4693,33.0275L15.4129,28.9711L17.8874,26.4966L21.9438,30.553L25.9932,26.5036L28.4677,28.9781L24.4183,33.0275L28.4924,37.1016L26.0179,39.5761L21.9438,35.502Z" style="fill:rgb(169,41,28);"/>
    </g>
</svg>
