<?xml version="1.0" encoding="UTF-8" standalone="no"?>
<svg
   xmlns:dc="http://purl.org/dc/elements/1.1/"
   xmlns:cc="http://creativecommons.org/ns#"
   xmlns:rdf="http://www.w3.org/1999/02/22-rdf-syntax-ns#"
   xmlns:svg="http://www.w3.org/2000/svg"
   xmlns="http://www.w3.org/2000/svg"
   xmlns:sodipodi="http://sodipodi.sourceforge.net/DTD/sodipodi-0.dtd"
   xmlns:inkscape="http://www.inkscape.org/namespaces/inkscape"
   width="100%"
   height="100%"
   viewBox="0 0 48 48"
   version="1.1"
   xml:space="preserve"
   style="fill-rule:evenodd;clip-rule:evenodd;stroke-linejoin:round;stroke-miterlimit:1.41421;"
   id="svg2"
   inkscape:version="0.48.5 r10040"
   sodipodi:docname="edit.svg"><metadata
   id="metadata10"><rdf:RDF><cc:Work
       rdf:about=""><dc:format>image/svg+xml</dc:format><dc:type
         rdf:resource="http://purl.org/dc/dcmitype/StillImage" /><dc:title></dc:title></cc:Work></rdf:RDF></metadata><defs
   id="defs8" /><sodipodi:namedview
   pagecolor="#ffffff"
   bordercolor="#666666"
   borderopacity="1"
   objecttolerance="10"
   gridtolerance="10"
   guidetolerance="10"
   inkscape:pageopacity="0"
   inkscape:pageshadow="2"
   inkscape:window-width="1920"
   inkscape:window-height="1021"
   id="namedview6"
   showgrid="false"
   inkscape:zoom="16.72819"
   inkscape:cx="16.85637"
   inkscape:cy="16.82648"
   inkscape:window-x="-8"
   inkscape:window-y="-8"
   inkscape:window-maximized="1"
   inkscape:current-layer="svg2" />
    
<path
   d="M 8.9266637,31.197361 33.228302,6.8796633 c 0.436429,-0.435956 1.140194,-0.432178 1.572373,0 l 6.317359,6.3173587 c 0.43265,0.432178 0.436429,1.135944 0,1.572373 -0.0392,0.0392 -0.08266,0.0751 -0.12989,0.106273 -0.01181,0.02787 -0.03543,0.05148 -0.05904,0.0751 L 16.808366,39.079063 6.5560601,41.445888 8.9266637,31.197361 z M 33.73558,8.9593143 13.792565,28.917916 l -0.03873,2.688007 1.973378,-0.03826 C 18.231011,29.007658 33.322295,13.979666 36.042892,11.267099 L 33.73558,8.9593143 z m 5.299024,5.2990237 -2.20529,-2.205289 C 30.110951,18.740239 18.235262,30.584282 16.439007,32.42777 l -0.03165,1.82365 2.672892,-0.03117 19.954355,-19.961909 z m -23.212927,23.220958 2.13019,-2.13019 -2.680922,0.03873 0.05101,-2.700759 -2.700287,0.05148 0.03873,-2.688951 -2.138219,2.13822 -1.4037532,5.39774 1.3017312,1.300785 5.401518,-1.407059 z"
   id="path3"
   inkscape:connector-curvature="0"
   style="fill:#000000" /></svg>