<?xml version="1.0" standalone="no"?>
<!DOCTYPE svg PUBLIC "-//W3C//DTD SVG 1.1//EN" "http://www.w3.org/Graphics/SVG/1.1/DTD/svg11.dtd">
<svg width="100%" height="100%" viewBox="0 0 48 48" version="1.1" xmlns="http://www.w3.org/2000/svg" xmlns:xlink="http://www.w3.org/1999/xlink" xml:space="preserve" style="fill-rule:evenodd;clip-rule:evenodd;stroke-linejoin:round;stroke-miterlimit:1.41421;">
    <path d="M38,12L22,12L18,8L8,8C5.8,8 4,9.8 4,12L4,36C4,38.2 5.8,40 8,40L39,40C40.7,40 42,38.7 42,37L42,16C42,13.8 40.2,12 38,12Z" style="fill:rgb(109,121,122);fill-rule:nonzero;"/>
    <path d="M42.2,18L15.3,18C13.4,18 11.7,19.4 11.4,21.3L8,40L39.7,40C41.6,40 43.3,38.6 43.6,36.7L46.1,22.7C46.6,20.3 44.7,18 42.2,18Z" style="fill:rgb(176,182,187);fill-rule:nonzero;"/>
</svg>
