<?xml version="1.0" standalone="no"?>
<!DOCTYPE svg PUBLIC "-//W3C//DTD SVG 1.1//EN" "http://www.w3.org/Graphics/SVG/1.1/DTD/svg11.dtd">
<svg width="100%" height="100%" viewBox="0 0 48 48" version="1.1" xmlns="http://www.w3.org/2000/svg" xmlns:xlink="http://www.w3.org/1999/xlink" xml:space="preserve" style="fill-rule:evenodd;clip-rule:evenodd;stroke-linejoin:round;stroke-miterlimit:1.41421;">
    <path d="M40,12L22,12L18,8L8,8C5.8,8 4,9.8 4,12L4,20L44,20L44,16C44,13.8 42.2,12 40,12Z" style="fill:rgb(109,121,122);fill-rule:nonzero;"/>
    <path d="M40,12L8,12C5.8,12 4,13.8 4,16L4,36C4,38.2 5.8,40 8,40L40,40C42.2,40 44,38.2 44,36L44,16C44,13.8 42.2,12 40,12Z" style="fill:rgb(176,182,187);fill-rule:nonzero;"/>
</svg>
