<?xml version="1.0" standalone="no"?>
<!DOCTYPE svg PUBLIC "-//W3C//DTD SVG 1.1//EN" "http://www.w3.org/Graphics/SVG/1.1/DTD/svg11.dtd">
<svg width="100%" height="100%" viewBox="0 0 48 48" version="1.1" xmlns="http://www.w3.org/2000/svg" xmlns:xlink="http://www.w3.org/1999/xlink" xml:space="preserve" style="fill-rule:evenodd;clip-rule:evenodd;stroke-linejoin:round;stroke-miterlimit:1.41421;">
    <path d="M37.4,24.6L25.8,22.4L21.9,11.2L18.1,12.5L22,23.6L14.2,32.6L17.2,35.2L25,26.2L36.6,28.4L37.4,24.6Z" style="fill:rgb(176,182,187);fill-rule:nonzero;"/>
    <g>
        <path d="M24,19C21.2,19 19,21.2 19,24C19,26.8 21.2,29 24,29C26.8,29 29,26.8 29,24C29,21.2 26.8,19 24,19ZM24,26C22.9,26 22,25.1 22,24C22,22.9 22.9,22 24,22C25.1,22 26,22.9 26,24C26,25.1 25.1,26 24,26Z" style="fill:rgb(109,121,122);fill-rule:nonzero;"/>
        <path d="M40.7,27C40.9,26 41,25 41,24C41,23 40.9,22 40.7,21L44,18.6C44.4,18.3 44.6,17.7 44.3,17.2L40,9.8C39.7,9.3 39.2,9.1 38.7,9.4L35,11C33.5,9.7 31.7,8.7 29.8,8L29.4,3.9C29.3,3.4 28.9,3 28.4,3L19.8,3C19.3,3 18.8,3.4 18.8,3.9L18.2,8C16.3,8.7 14.5,9.7 13,11L9.3,9.3C8.8,9.1 8.2,9.3 8,9.8L3.7,17.2C3.4,17.7 3.6,18.3 4,18.6L7.3,21C7.1,22 7,23 7,24C7,25 7.1,26 7.3,27L4,29.4C3.6,29.7 3.4,30.3 3.7,30.8L8,38.2C8.3,38.7 8.8,38.9 9.3,38.6L13,37C14.5,38.3 16.3,39.3 18.2,40L18.6,44.1C18.7,44.6 19.1,45 19.6,45L28.2,45C28.7,45 29.2,44.6 29.2,44.1L29.6,40C31.5,39.3 33.3,38.3 34.8,37L38.5,38.7C39,38.9 39.6,38.7 39.8,38.3L44.1,30.9C44.4,30.4 44.2,29.8 43.8,29.5L40.7,27ZM24,35C17.9,35 13,30.1 13,24C13,17.9 17.9,13 24,13C30.1,13 35,17.9 35,24C35,30.1 30.1,35 24,35Z" style="fill:rgb(109,121,122);fill-rule:nonzero;"/>
    </g>
</svg>
