<?xml version="1.0" standalone="no"?>
<!DOCTYPE svg PUBLIC "-//W3C//DTD SVG 1.1//EN" "http://www.w3.org/Graphics/SVG/1.1/DTD/svg11.dtd">
<svg width="100%" height="100%" viewBox="0 0 48 48" version="1.1" xmlns="http://www.w3.org/2000/svg" xmlns:xlink="http://www.w3.org/1999/xlink" xml:space="preserve" style="fill-rule:evenodd;clip-rule:evenodd;stroke-linejoin:round;stroke-miterlimit:1.41421;">
    <path d="M39.6,27.2C39.7,26.5 39.8,25.8 39.8,25C39.8,24.2 39.7,23.5 39.6,22.8L44.1,19.6C44.5,19.3 44.7,18.7 44.4,18.2L40,10.8C39.7,10.3 39.2,10.1 38.7,10.4L33.7,12.7C32.5,11.8 31.3,11.1 29.9,10.5L29.4,5C29.3,4.5 28.9,4.1 28.4,4.1L19.8,4.1C19.3,4.1 18.8,4.5 18.8,5L18.3,10.5C16.9,11.1 15.6,11.8 14.5,12.7L9.5,10.4C9,10.2 8.4,10.4 8.2,10.8L3.9,18.2C3.6,18.7 3.8,19.3 4.2,19.6L8.7,22.8C8.6,23.5 8.5,24.2 8.5,25C8.5,25.8 8.6,26.5 8.7,27.2L4,30.4C3.6,30.7 3.4,31.3 3.7,31.8L8,39.2C8.3,39.7 8.8,39.9 9.3,39.6L14.3,37.3C15.5,38.2 16.7,38.9 18.1,39.5L18.6,45C18.7,45.5 19.1,45.9 19.6,45.9L28.2,45.9C28.7,45.9 29.2,45.5 29.2,45L29.7,39.5C31.1,38.9 32.4,38.2 33.5,37.3L38.5,39.6C39,39.8 39.6,39.6 39.8,39.2L44.1,31.8C44.4,31.3 44.2,30.7 43.8,30.4L39.6,27.2ZM24,35C18.5,35 14,30.5 14,25C14,19.5 18.5,15 24,15C29.5,15 34,19.5 34,25C34,30.5 29.5,35 24,35Z" style="fill:rgb(109,121,122);fill-rule:nonzero;"/>
    <path d="M24,13C17.4,13 12,18.4 12,25C12,31.6 17.4,37 24,37C30.6,37 36,31.6 36,25C36,18.4 30.6,13 24,13ZM24,30C21.2,30 19,27.8 19,25C19,22.2 21.2,20 24,20C26.8,20 29,22.2 29,25C29,27.8 26.8,30 24,30Z" style="fill:rgb(176,182,187);fill-rule:nonzero;"/>
</svg>
