<?xml version="1.0" encoding="UTF-8" standalone="no"?>
<svg
   xmlns:dc="http://purl.org/dc/elements/1.1/"
   xmlns:cc="http://creativecommons.org/ns#"
   xmlns:rdf="http://www.w3.org/1999/02/22-rdf-syntax-ns#"
   xmlns:svg="http://www.w3.org/2000/svg"
   xmlns="http://www.w3.org/2000/svg"
   xmlns:sodipodi="http://sodipodi.sourceforge.net/DTD/sodipodi-0.dtd"
   xmlns:inkscape="http://www.inkscape.org/namespaces/inkscape"
   width="100%"
   height="100%"
   viewBox="0 0 48 48"
   version="1.1"
   xml:space="preserve"
   style="fill-rule:evenodd;clip-rule:evenodd;stroke-linejoin:round;stroke-miterlimit:1.41421;"
   id="svg2"
   inkscape:version="0.48.5 r10040"
   sodipodi:docname="more.svg"><metadata
   id="metadata16"><rdf:RDF><cc:Work
       rdf:about=""><dc:format>image/svg+xml</dc:format><dc:type
         rdf:resource="http://purl.org/dc/dcmitype/StillImage" /></cc:Work></rdf:RDF></metadata><defs
   id="defs14" /><sodipodi:namedview
   pagecolor="#ffffff"
   bordercolor="#666666"
   borderopacity="1"
   objecttolerance="10"
   gridtolerance="10"
   guidetolerance="10"
   inkscape:pageopacity="0"
   inkscape:pageshadow="2"
   inkscape:window-width="880"
   inkscape:window-height="710"
   id="namedview12"
   showgrid="false"
   inkscape:zoom="10.755208"
   inkscape:cx="12.889104"
   inkscape:cy="24"
   inkscape:window-x="658"
   inkscape:window-y="-3"
   inkscape:window-maximized="0"
   inkscape:current-layer="g4" />
    <g
   id="g4"
   transform="matrix(1.4023535,0,0,1.4023535,-8.8517771,-4.140982)">
        
        
        <g
   id="g2993"
   transform="translate(0,1.3540911)"><path
     inkscape:connector-curvature="0"
     id="path6"
     style="fill:#6d797a"
     d="m 26.171174,18.712852 c 0,1.5161 -1.2289,2.7451 -2.745,2.7451 -1.516,0 -2.745,-1.229 -2.745,-2.7451 0,-1.516 1.229,-2.745 2.745,-2.745 1.5161,0 2.745,1.229 2.745,2.745 z" /><path
     inkscape:connector-curvature="0"
     id="path8"
     style="fill:#6d797a"
     d="m 26.171174,29.029961 c 0,1.5161 -1.2289,2.745 -2.745,2.745 -1.516,0 -2.745,-1.2289 -2.745,-2.745 0,-1.516 1.229,-2.745 2.745,-2.745 1.5161,0 2.745,1.229 2.745,2.745 z" /><path
     inkscape:connector-curvature="0"
     id="path10"
     style="fill:#6d797a"
     d="m 26.171174,8.3957916 c 0,1.5161 -1.2289,2.7451004 -2.745,2.7451004 -1.516,0 -2.745,-1.2290004 -2.745,-2.7451004 0,-1.516 1.229,-2.745 2.745,-2.745 1.5161,0 2.745,1.229 2.745,2.745 z" /></g>
    </g>
</svg>