<svg xmlns="http://www.w3.org/2000/svg" xmlns:xlink="http://www.w3.org/1999/xlink" version="1.1" id="Your_Icon" x="0px" y="0px" width="100px" height="100px" viewBox="0 0 100 100" enable-background="new 0 0 100 100" xml:space="preserve">
<path fill="#000000" d="M82.447,62.427L30.996,10.942c-0.924-0.923-2.414-0.915-3.329,0L14.292,24.317  c-0.916,0.915-0.924,2.405,0,3.329c0.083,0.083,0.175,0.159,0.275,0.225c0.025,0.059,0.075,0.109,0.125,0.159L65.76,79.114  l21.706,5.011L82.447,62.427z M29.922,15.345l42.223,42.256l0.082,5.691l-4.178-0.081c-5.301-5.42-37.252-37.237-43.012-42.98  L29.922,15.345z M18.703,26.564l4.669-4.669c14.224,14.158,39.367,39.234,43.17,43.137l0.067,3.861l-5.659-0.066L18.703,26.564z   M67.849,75.727l-4.51-4.51l5.676,0.082l-0.108-5.718l5.717,0.109l-0.082-5.693l4.527,4.527l2.972,11.428l-2.756,2.754  L67.849,75.727z"/>
</svg>