<?xml version="1.0" standalone="no"?>
<!DOCTYPE svg PUBLIC "-//W3C//DTD SVG 1.1//EN" "http://www.w3.org/Graphics/SVG/1.1/DTD/svg11.dtd">
<svg width="100%" height="100%" viewBox="0 0 48 48" version="1.1" xmlns="http://www.w3.org/2000/svg" xmlns:xlink="http://www.w3.org/1999/xlink" xml:space="preserve" style="fill-rule:evenodd;clip-rule:evenodd;stroke-linejoin:round;stroke-miterlimit:1.41421;">
    <g>
        <path d="M32.0029,29.1625L29.1749,31.9905L41.1939,44.0095L44.0219,41.1815L32.0029,29.1625Z" style="fill:rgb(109,121,122);"/>
        <circle cx="20" cy="20" r="16" style="fill:rgb(133,148,149);"/>
    </g>
    <path d="M35.2771,32.5123L32.4491,35.3403L41.1452,44.0364L43.9732,41.2084L35.2771,32.5123Z" style="fill:black;"/>
    <circle cx="20" cy="20" r="13" style="fill:white;"/>
    <path d="M26.9,14.2C25.2,12.2 22.7,11 20,11C17.3,11 14.8,12.2 13.1,14.2C12.7,14.6 12.8,15.3 13.2,15.6C13.6,16 14.3,15.9 14.6,15.5C16,13.9 17.9,13 20,13C22.1,13 24,13.9 25.4,15.5C25.6,15.7 25.9,15.9 26.2,15.9C26.4,15.9 26.7,15.8 26.8,15.7C27.2,15.3 27.2,14.6 26.9,14.2Z" style="fill:rgb(176,182,187);fill-rule:nonzero;"/>
</svg>
